<?xml version="1.0" encoding="UTF-8" standalone="no"?>
<!DOCTYPE svg PUBLIC "-//W3C//DTD SVG 1.1//EN" "http://www.w3.org/Graphics/SVG/1.1/DTD/svg11.dtd">
<svg width="100%" height="100%" viewBox="0 0 394 394" version="1.1" xmlns="http://www.w3.org/2000/svg" xmlns:xlink="http://www.w3.org/1999/xlink" xml:space="preserve" xmlns:serif="http://www.serif.com/" style="fill-rule:evenodd;clip-rule:evenodd;stroke-linecap:round;stroke-linejoin:round;">
    <g transform="matrix(1,0,0,1,-403,-118)">
        <g transform="matrix(1.002545,0,0,0.968059,-79.223919,73.469287)">
            <path d="M874,151.208L874,347.792C874,405.858 828.479,453 772.411,453L582.589,453C526.521,453 481,405.858 481,347.792L481,151.208C481,93.142 526.521,46 582.589,46L772.411,46C828.479,46 874,93.142 874,151.208Z" style="fill:white;"/>
        </g>
        <g transform="matrix(5.130208,0,0,5.130208,600,315)">
            <g transform="matrix(1,0,0,1,-24,-24)">
                <g transform="matrix(2,0,0,2,0,0)">
                    <path d="M14,14C14.549,14 15,14.451 15,15L15,20C15,20.549 14.549,21 14,21" style="fill:none;fill-rule:nonzero;stroke:black;stroke-width:2px;"/>
                </g>
                <g transform="matrix(2,0,0,2,0,0)">
                    <path d="M14,4C14,3.451 14.451,3 15,3" style="fill:none;fill-rule:nonzero;stroke:black;stroke-width:2px;"/>
                </g>
                <g transform="matrix(2,0,0,2,0,0)">
                    <path d="M15,10C14.451,10 14,9.549 14,9" style="fill:none;fill-rule:nonzero;stroke:black;stroke-width:2px;"/>
                </g>
                <g transform="matrix(2,0,0,2,0,0)">
                    <path d="M19,14C19.549,14 20,14.451 20,15L20,20C20,20.549 19.549,21 19,21" style="fill:none;fill-rule:nonzero;stroke:black;stroke-width:2px;"/>
                </g>
                <g transform="matrix(2,0,0,2,0,0)">
                    <path d="M21,4C21,3.451 20.549,3 20,3" style="fill:none;fill-rule:nonzero;stroke:black;stroke-width:2px;"/>
                </g>
                <g transform="matrix(2,0,0,2,0,0)">
                    <path d="M21,9C21,9.549 20.549,10 20,10" style="fill:none;fill-rule:nonzero;stroke:black;stroke-width:2px;"/>
                </g>
                <g transform="matrix(2,0,0,2,0,0)">
                    <path d="M3,7L6,10L9,7" style="fill:none;fill-rule:nonzero;stroke:black;stroke-width:2px;"/>
                </g>
                <g transform="matrix(2,0,0,2,0,0)">
                    <path d="M6,10L6,5C6,3.903 6.903,3 8,3L10,3" style="fill:none;fill-rule:nonzero;stroke:black;stroke-width:2px;"/>
                </g>
                <g transform="matrix(2,0,0,2,0,0)">
                    <path d="M10,15L10,20C10,20.552 9.552,21 9,21L4,21C3.448,21 3,20.552 3,20L3,15C3,14.448 3.448,14 4,14L9,14C9.552,14 10,14.448 10,15Z" style="fill:none;stroke:black;stroke-width:2px;"/>
                </g>
            </g>
        </g>
    </g>
</svg>
